<?xml version="1.0" encoding="utf-8"?><svg xmlns="http://www.w3.org/2000/svg" xmlns:xlink="http://www.w3.org/1999/xlink" width="1360" height="599" preserveAspectRatio="xMidYMid" viewBox="0 0 1360 599" style="z-index:1;margin-right:-2px;display:block;background-color:rgb(241, 242, 243);animation-play-state:running" ><g transform="translate(680,299.5) scale(1,1) translate(-680,-299.5)" style="transform:matrix(1, 0, 0, 1, 0, 0);animation-play-state:running" ><g id="bk-0.6722686744726716" style="animation-play-state:running" ><path d="M 630 285 L 714 288 L 623 183 Z" stroke="#90cae6" fill="#90cae6" style="animation-play-state:running" ></path>
<path d="M 714 288 L 728 178 L 623 183 Z" stroke="#8dc3e0" fill="#8dc3e0" style="animation-play-state:running" ></path>
<path d="M 714 288 L 805 266 L 728 178 Z" stroke="#94d3ed" fill="#94d3ed" style="animation-play-state:running" ></path>
<path d="M 630 285 L 619 358 L 714 288 Z" stroke="#90d8ed" fill="#90d8ed" style="animation-play-state:running" ></path>
<path d="M 714 288 L 815 381 L 805 266 Z" stroke="#88dfe6" fill="#88dfe6" style="animation-play-state:running" ></path>
<path d="M 619 358 L 714 367 L 714 288 Z" stroke="#8adde8" fill="#8adde8" style="animation-play-state:running" ></path>
<path d="M 635 84 L 515 186 L 623 183 Z" stroke="#7fa3c3" fill="#7fa3c3" style="animation-play-state:running" ></path>
<path d="M 623 183 L 515 186 L 630 285 Z" stroke="#88b8d6" fill="#88b8d6" style="animation-play-state:running" ></path>
<path d="M 630 285 L 525 280 L 619 358 Z" stroke="#94d2ec" fill="#94d2ec" style="animation-play-state:running" ></path>
<path d="M 515 186 L 525 280 L 630 285 Z" stroke="#8abdda" fill="#8abdda" style="animation-play-state:running" ></path>
<path d="M 805 266 L 824 193 L 728 178 Z" stroke="#91cde8" fill="#91cde8" style="animation-play-state:running" ></path>
<path d="M 824 193 L 724 98 L 728 178 Z" stroke="#88b7d5" fill="#88b7d5" style="animation-play-state:running" ></path>
<path d="M 728 178 L 635 84 L 623 183 Z" stroke="#82aac9" fill="#82aac9" style="animation-play-state:running" ></path>
<path d="M 724 98 L 635 84 L 728 178 Z" stroke="#80a5c4" fill="#80a5c4" style="animation-play-state:running" ></path>
<path d="M 714 367 L 815 381 L 714 288 Z" stroke="#87e1e2" fill="#87e1e2" style="animation-play-state:running" ></path>
<path d="M 805 266 L 926 268 L 824 193 Z" stroke="#8ed9ec" fill="#8ed9ec" style="animation-play-state:running" ></path>
<path d="M 397 281 L 493 353 L 525 280 Z" stroke="#8cc1dd" fill="#8cc1dd" style="animation-play-state:running" ></path>
<path d="M 525 280 L 493 353 L 619 358 Z" stroke="#94d2ec" fill="#94d2ec" style="animation-play-state:running" ></path>
<path d="M 619 358 L 711 466 L 714 367 Z" stroke="#87e2df" fill="#87e2df" style="animation-play-state:running" ></path>
<path d="M 824 193 L 816 79 L 724 98 Z" stroke="#84afce" fill="#84afce" style="animation-play-state:running" ></path>
<path d="M 724 98 L 628 -3 L 635 84 Z" stroke="#758dad" fill="#758dad" style="animation-play-state:running" ></path>
<path d="M 630 503 L 711 466 L 619 358 Z" stroke="#88e4d9" fill="#88e4d9" style="animation-play-state:running" ></path>
<path d="M 714 367 L 711 466 L 815 381 Z" stroke="#89e6d5" fill="#89e6d5" style="animation-play-state:running" ></path>
<path d="M 628 -3 L 522 70 L 635 84 Z" stroke="#7184a3" fill="#7184a3" style="animation-play-state:running" ></path>
<path d="M 635 84 L 522 70 L 515 186 Z" stroke="#7894b4" fill="#7894b4" style="animation-play-state:running" ></path>
<path d="M 515 186 L 397 281 L 525 280 Z" stroke="#86b3d1" fill="#86b3d1" style="animation-play-state:running" ></path>
<path d="M 815 381 L 926 268 L 805 266 Z" stroke="#87e1e1" fill="#87e1e1" style="animation-play-state:running" ></path>
<path d="M 824 193 L 932 87 L 816 79 Z" stroke="#87b4d3" fill="#87b4d3" style="animation-play-state:running" ></path>
<path d="M 741 -21 L 628 -3 L 724 98 Z" stroke="#7185a5" fill="#7185a5" style="animation-play-state:running" ></path>
<path d="M 533 475 L 630 503 L 619 358 Z" stroke="#87e2e0" fill="#87e2e0" style="animation-play-state:running" ></path>
<path d="M 926 268 L 924 193 L 824 193 Z" stroke="#91d7ed" fill="#91d7ed" style="animation-play-state:running" ></path>
<path d="M 825 -23 L 741 -21 L 816 79 Z" stroke="#7389a9" fill="#7389a9" style="animation-play-state:running" ></path>
<path d="M 816 79 L 741 -21 L 724 98 Z" stroke="#7894b4" fill="#7894b4" style="animation-play-state:running" ></path>
<path d="M 405 174 L 397 281 L 515 186 Z" stroke="#7fa3c3" fill="#7fa3c3" style="animation-play-state:running" ></path>
<path d="M 436 93 L 405 174 L 515 186 Z" stroke="#7893b3" fill="#7893b3" style="animation-play-state:running" ></path>
<path d="M 419 392 L 533 475 L 493 353 Z" stroke="#91d8ed" fill="#91d8ed" style="animation-play-state:running" ></path>
<path d="M 493 353 L 533 475 L 619 358 Z" stroke="#8cdbea" fill="#8cdbea" style="animation-play-state:running" ></path>
<path d="M 897 454 L 928 377 L 815 381 Z" stroke="#96eac3" fill="#96eac3" style="animation-play-state:running" ></path>
<path d="M 815 381 L 928 377 L 926 268 Z" stroke="#8ae6d4" fill="#8ae6d4" style="animation-play-state:running" ></path>
<path d="M 397 281 L 419 392 L 493 353 Z" stroke="#8ec5e1" fill="#8ec5e1" style="animation-play-state:running" ></path>
<path d="M 692 565 L 835 486 L 711 466 Z" stroke="#9bebbe" fill="#9bebbe" style="animation-play-state:running" ></path>
<path d="M 711 466 L 835 486 L 815 381 Z" stroke="#94eac6" fill="#94eac6" style="animation-play-state:running" ></path>
<path d="M 411 -11 L 436 93 L 522 70 Z" stroke="#6a7694" fill="#6a7694" style="animation-play-state:running" ></path>
<path d="M 522 70 L 436 93 L 515 186 Z" stroke="#758dad" fill="#758dad" style="animation-play-state:running" ></path>
<path d="M 932 87 L 825 -23 L 816 79 Z" stroke="#7b9bbb" fill="#7b9bbb" style="animation-play-state:running" ></path>
<path d="M 1024 192 L 932 87 L 924 193 Z" stroke="#91cbe6" fill="#91cbe6" style="animation-play-state:running" ></path>
<path d="M 924 193 L 932 87 L 824 193 Z" stroke="#8ec5e1" fill="#8ec5e1" style="animation-play-state:running" ></path>
<path d="M 1024 192 L 924 193 L 926 268 Z" stroke="#8ddaeb" fill="#8ddaeb" style="animation-play-state:running" ></path>
<path d="M 627 -118 L 520 -17 L 628 -3 Z" stroke="#606582" fill="#606582" style="animation-play-state:running" ></path>
<path d="M 628 -3 L 520 -17 L 522 70 Z" stroke="#697694" fill="#697694" style="animation-play-state:running" ></path>
<path d="M 716 -118 L 628 -3 L 741 -21 Z" stroke="#656d8b" fill="#656d8b" style="animation-play-state:running" ></path>
<path d="M 614 574 L 692 565 L 630 503 Z" stroke="#92e9c8" fill="#92e9c8" style="animation-play-state:running" ></path>
<path d="M 630 503 L 692 565 L 711 466 Z" stroke="#91e9c9" fill="#91e9c9" style="animation-play-state:running" ></path>
<path d="M 835 486 L 897 454 L 815 381 Z" stroke="#9cebbe" fill="#9cebbe" style="animation-play-state:running" ></path>
<path d="M 924 580 L 897 454 L 835 486 Z" stroke="#b8eca8" fill="#b8eca8" style="animation-play-state:running" ></path>
<path d="M 533 475 L 614 574 L 630 503 Z" stroke="#89e6d5" fill="#89e6d5" style="animation-play-state:running" ></path>
<path d="M 337 490 L 438 482 L 419 392 Z" stroke="#94d6ee" fill="#94d6ee" style="animation-play-state:running" ></path>
<path d="M 419 392 L 438 482 L 533 475 Z" stroke="#8ddaeb" fill="#8ddaeb" style="animation-play-state:running" ></path>
<path d="M 533 475 L 535 572 L 614 574 Z" stroke="#89e5d7" fill="#89e5d7" style="animation-play-state:running" ></path>
<path d="M 308 161 L 311 277 L 397 281 Z" stroke="#7c9dbd" fill="#7c9dbd" style="animation-play-state:running" ></path>
<path d="M 397 281 L 311 277 L 419 392 Z" stroke="#87b6d4" fill="#87b6d4" style="animation-play-state:running" ></path>
<path d="M 308 161 L 397 281 L 405 174 Z" stroke="#7a98b8" fill="#7a98b8" style="animation-play-state:running" ></path>
<path d="M 1017 286 L 926 268 L 928 377 Z" stroke="#89e6d6" fill="#89e6d6" style="animation-play-state:running" ></path>
<path d="M 1017 286 L 1024 192 L 926 268 Z" stroke="#87e0e4" fill="#87e0e4" style="animation-play-state:running" ></path>
<path d="M 1022 395 L 1017 286 L 928 377 Z" stroke="#94eac5" fill="#94eac5" style="animation-play-state:running" ></path>
<path d="M 1017 77 L 932 -1 L 932 87 Z" stroke="#80a5c5" fill="#80a5c5" style="animation-play-state:running" ></path>
<path d="M 932 87 L 932 -1 L 825 -23 Z" stroke="#7894b4" fill="#7894b4" style="animation-play-state:running" ></path>
<path d="M 828 -113 L 716 -118 L 741 -21 Z" stroke="#616783" fill="#616783" style="animation-play-state:running" ></path>
<path d="M 317 61 L 405 174 L 436 93 Z" stroke="#6f809f" fill="#6f809f" style="animation-play-state:running" ></path>
<path d="M 317 61 L 308 161 L 405 174 Z" stroke="#6f81a0" fill="#6f81a0" style="animation-play-state:running" ></path>
<path d="M 520 -17 L 411 -11 L 522 70 Z" stroke="#656e8b" fill="#656e8b" style="animation-play-state:running" ></path>
<path d="M 828 -113 L 741 -21 L 825 -23 Z" stroke="#687492" fill="#687492" style="animation-play-state:running" ></path>
<path d="M 520 -17 L 422 -124 L 411 -11 Z" stroke="#585872" fill="#585872" style="animation-play-state:running" ></path>
<path d="M 739 698 L 819 582 L 692 565 Z" stroke="#b2ecac" fill="#b2ecac" style="animation-play-state:running" ></path>
<path d="M 692 565 L 819 582 L 835 486 Z" stroke="#abecb1" fill="#abecb1" style="animation-play-state:running" ></path>
<path d="M 716 -118 L 627 -118 L 628 -3 Z" stroke="#5d607c" fill="#5d607c" style="animation-play-state:running" ></path>
<path d="M 438 482 L 535 572 L 533 475 Z" stroke="#87e1e2" fill="#87e1e2" style="animation-play-state:running" ></path>
<path d="M 614 574 L 609 673 L 692 565 Z" stroke="#98eac1" fill="#98eac1" style="animation-play-state:running" ></path>
<path d="M 236 302 L 314 373 L 311 277 Z" stroke="#81a9c8" fill="#81a9c8" style="animation-play-state:running" ></path>
<path d="M 311 277 L 314 373 L 419 392 Z" stroke="#88b9d6" fill="#88b9d6" style="animation-play-state:running" ></path>
<path d="M 438 482 L 421 576 L 535 572 Z" stroke="#87e0e3" fill="#87e0e3" style="animation-play-state:running" ></path>
<path d="M 932 -1 L 828 -113 L 825 -23 Z" stroke="#6c7a99" fill="#6c7a99" style="animation-play-state:running" ></path>
<path d="M 1024 192 L 1017 77 L 932 87 Z" stroke="#8bc0dd" fill="#8bc0dd" style="animation-play-state:running" ></path>
<path d="M 932 -1 L 919 -133 L 828 -113 Z" stroke="#66708e" fill="#66708e" style="animation-play-state:running" ></path>
<path d="M 1120 182 L 1017 77 L 1024 192 Z" stroke="#93d1eb" fill="#93d1eb" style="animation-play-state:running" ></path>
<path d="M 1025 487 L 928 377 L 897 454 Z" stroke="#adecaf" fill="#adecaf" style="animation-play-state:running" ></path>
<path d="M 1025 487 L 1022 395 L 928 377 Z" stroke="#adecaf" fill="#adecaf" style="animation-play-state:running" ></path>
<path d="M 1017 286 L 1120 182 L 1024 192 Z" stroke="#88dee6" fill="#88dee6" style="animation-play-state:running" ></path>
<path d="M 411 -11 L 317 61 L 436 93 Z" stroke="#656e8c" fill="#656e8c" style="animation-play-state:running" ></path>
<path d="M 308 161 L 236 302 L 311 277 Z" stroke="#7a98b7" fill="#7a98b7" style="animation-play-state:running" ></path>
<path d="M 716 -118 L 506 -132 L 627 -118 Z" stroke="#4c5b77" fill="#4c5b77" style="animation-play-state:running" ></path>
<path d="M 627 -118 L 506 -132 L 520 -17 Z" stroke="#545974" fill="#545974" style="animation-play-state:running" ></path>
<path d="M 411 -11 L 319 -34 L 317 61 Z" stroke="#5c5e7a" fill="#5c5e7a" style="animation-play-state:running" ></path>
<path d="M 819 582 L 924 580 L 835 486 Z" stroke="#bfeca4" fill="#bfeca4" style="animation-play-state:running" ></path>
<path d="M 924 580 L 1025 487 L 897 454 Z" stroke="#c8ec9f" fill="#c8ec9f" style="animation-play-state:running" ></path>
<path d="M 299 567 L 421 576 L 438 482 Z" stroke="#8cdbea" fill="#8cdbea" style="animation-play-state:running" ></path>
<path d="M 535 572 L 609 673 L 614 574 Z" stroke="#90e9cb" fill="#90e9cb" style="animation-play-state:running" ></path>
<path d="M 314 373 L 337 490 L 419 392 Z" stroke="#90c9e5" fill="#90c9e5" style="animation-play-state:running" ></path>
<path d="M 514 666 L 609 673 L 535 572 Z" stroke="#8ee8ce" fill="#8ee8ce" style="animation-play-state:running" ></path>
<path d="M 819 582 L 809 687 L 924 580 Z" stroke="#ceec9d" fill="#ceec9d" style="animation-play-state:running" ></path>
<path d="M 506 -132 L 422 -124 L 520 -17 Z" stroke="#4b5c77" fill="#4b5c77" style="animation-play-state:running" ></path>
<path d="M 1017 77 L 1004 -49 L 932 -1 Z" stroke="#7997b6" fill="#7997b6" style="animation-play-state:running" ></path>
<path d="M 212 167 L 236 302 L 308 161 Z" stroke="#748aaa" fill="#748aaa" style="animation-play-state:running" ></path>
<path d="M 314 373 L 226 478 L 337 490 Z" stroke="#8dc4e0" fill="#8dc4e0" style="animation-play-state:running" ></path>
<path d="M 1004 -49 L 919 -133 L 932 -1 Z" stroke="#6c7b9a" fill="#6c7b9a" style="animation-play-state:running" ></path>
<path d="M 828 -113 L 919 -133 L 716 -118 Z" stroke="#5c5e79" fill="#5c5e79" style="animation-play-state:running" ></path>
<path d="M 716 -118 L 919 -133 L 506 -132 Z" stroke="#545974" fill="#545974" style="animation-play-state:running" ></path>
<path d="M 609 673 L 739 698 L 692 565 Z" stroke="#a5ecb6" fill="#a5ecb6" style="animation-play-state:running" ></path>
<path d="M 422 -124 L 319 -34 L 411 -11 Z" stroke="#4d5b77" fill="#4d5b77" style="animation-play-state:running" ></path>
<path d="M 232 82 L 212 167 L 308 161 Z" stroke="#6a7796" fill="#6a7796" style="animation-play-state:running" ></path>
<path d="M 739 698 L 809 687 L 819 582 Z" stroke="#c2eca2" fill="#c2eca2" style="animation-play-state:running" ></path>
<path d="M 924 580 L 1011 581 L 1025 487 Z" stroke="#e1ea95" fill="#e1ea95" style="animation-play-state:running" ></path>
<path d="M 1122 384 L 1135 280 L 1022 395 Z" stroke="#a1ebb9" fill="#a1ebb9" style="animation-play-state:running" ></path>
<path d="M 1022 395 L 1135 280 L 1017 286 Z" stroke="#91e9c9" fill="#91e9c9" style="animation-play-state:running" ></path>
<path d="M 1017 77 L 1130 -14 L 1004 -49 Z" stroke="#7b99b9" fill="#7b99b9" style="animation-play-state:running" ></path>
<path d="M 1135 280 L 1120 182 L 1017 286 Z" stroke="#87e3dd" fill="#87e3dd" style="animation-play-state:running" ></path>
<path d="M 409 684 L 514 666 L 421 576 Z" stroke="#87e3de" fill="#87e3de" style="animation-play-state:running" ></path>
<path d="M 421 576 L 514 666 L 535 572 Z" stroke="#87e4da" fill="#87e4da" style="animation-play-state:running" ></path>
<path d="M 609 673 L 514 666 L 739 698 Z" stroke="#9bebbf" fill="#9bebbf" style="animation-play-state:running" ></path>
<path d="M 232 82 L 308 161 L 317 61 Z" stroke="#677290" fill="#677290" style="animation-play-state:running" ></path>
<path d="M 205 -36 L 232 82 L 317 61 Z" stroke="#5b5d78" fill="#5b5d78" style="animation-play-state:running" ></path>
<path d="M 133 375 L 204 368 L 102 268 Z" stroke="#7a98b8" fill="#7a98b8" style="animation-play-state:running" ></path>
<path d="M 236 302 L 204 368 L 314 373 Z" stroke="#82aac9" fill="#82aac9" style="animation-play-state:running" ></path>
<path d="M 337 490 L 299 567 L 438 482 Z" stroke="#91d7ed" fill="#91d7ed" style="animation-play-state:running" ></path>
<path d="M 1120 182 L 1130 83 L 1017 77 Z" stroke="#8ec6e1" fill="#8ec6e1" style="animation-play-state:running" ></path>
<path d="M 1004 -49 L 1029 -100 L 919 -133 Z" stroke="#67718f" fill="#67718f" style="animation-play-state:running" ></path>
<path d="M 933 674 L 1011 581 L 924 580 Z" stroke="#ebe993" fill="#ebe993" style="animation-play-state:running" ></path>
<path d="M 1099 460 L 1122 384 L 1022 395 Z" stroke="#baeca7" fill="#baeca7" style="animation-play-state:running" ></path>
<path d="M 226 478 L 299 567 L 337 490 Z" stroke="#92cde8" fill="#92cde8" style="animation-play-state:running" ></path>
<path d="M 1099 460 L 1022 395 L 1025 487 Z" stroke="#c4eca1" fill="#c4eca1" style="animation-play-state:running" ></path>
<path d="M 1135 280 L 1226 262 L 1120 182 Z" stroke="#87e4db" fill="#87e4db" style="animation-play-state:running" ></path>
<path d="M 1203 68 L 1130 -14 L 1130 83 Z" stroke="#84afce" fill="#84afce" style="animation-play-state:running" ></path>
<path d="M 1107 573 L 1099 460 L 1025 487 Z" stroke="#e7ea94" fill="#e7ea94" style="animation-play-state:running" ></path>
<path d="M 293 653 L 409 684 L 421 576 Z" stroke="#89dee7" fill="#89dee7" style="animation-play-state:running" ></path>
<path d="M 514 666 L 409 684 L 739 698 Z" stroke="#90e9cb" fill="#90e9cb" style="animation-play-state:running" ></path>
<path d="M 1130 -14 L 1029 -100 L 1004 -49 Z" stroke="#7184a3" fill="#7184a3" style="animation-play-state:running" ></path>
<path d="M 204 368 L 226 478 L 314 373 Z" stroke="#87b5d3" fill="#87b5d3" style="animation-play-state:running" ></path>
<path d="M 299 567 L 293 653 L 421 576 Z" stroke="#8ddaeb" fill="#8ddaeb" style="animation-play-state:running" ></path>
<path d="M 739 698 L 933 674 L 809 687 Z" stroke="#d0ec9b" fill="#d0ec9b" style="animation-play-state:running" ></path>
<path d="M 809 687 L 933 674 L 924 580 Z" stroke="#deea96" fill="#deea96" style="animation-play-state:running" ></path>
<path d="M 1011 581 L 1107 573 L 1025 487 Z" stroke="#f1e892" fill="#f1e892" style="animation-play-state:running" ></path>
<path d="M 422 -124 L 309 -144 L 319 -34 Z" stroke="#306276" fill="#306276" style="animation-play-state:running" ></path>
<path d="M 319 -34 L 205 -36 L 317 61 Z" stroke="#555974" fill="#555974" style="animation-play-state:running" ></path>
<path d="M 506 -132 L 309 -144 L 422 -124 Z" stroke="#276474" fill="#276474" style="animation-play-state:running" ></path>
<path d="M 1130 83 L 1130 -14 L 1017 77 Z" stroke="#83adcb" fill="#83adcb" style="animation-play-state:running" ></path>
<path d="M 1203 68 L 1130 83 L 1120 182 Z" stroke="#8fc9e4" fill="#8fc9e4" style="animation-play-state:running" ></path>
<path d="M 309 -144 L 205 -36 L 319 -34 Z" stroke="#336277" fill="#336277" style="animation-play-state:running" ></path>
<path d="M 131 84 L 132 189 L 212 167 Z" stroke="#666f8c" fill="#666f8c" style="animation-play-state:running" ></path>
<path d="M 212 167 L 102 268 L 236 302 Z" stroke="#7389a9" fill="#7389a9" style="animation-play-state:running" ></path>
<path d="M 1240 394 L 1226 262 L 1122 384 Z" stroke="#abecb1" fill="#abecb1" style="animation-play-state:running" ></path>
<path d="M 1122 384 L 1226 262 L 1135 280 Z" stroke="#97eac3" fill="#97eac3" style="animation-play-state:running" ></path>
<path d="M 131 84 L 212 167 L 232 82 Z" stroke="#636a86" fill="#636a86" style="animation-play-state:running" ></path>
<path d="M 204 368 L 133 375 L 226 478 Z" stroke="#83accb" fill="#83accb" style="animation-play-state:running" ></path>
<path d="M 1036 697 L 1107 573 L 1011 581 Z" stroke="#ffe392" fill="#ffe392" style="animation-play-state:running" ></path>
<path d="M 1231 502 L 1240 394 L 1122 384 Z" stroke="#d7eb99" fill="#d7eb99" style="animation-play-state:running" ></path>
<path d="M 140 1 L 131 84 L 232 82 Z" stroke="#595973" fill="#595973" style="animation-play-state:running" ></path>
<path d="M 1226 262 L 1219 176 L 1120 182 Z" stroke="#87e0e3" fill="#87e0e3" style="animation-play-state:running" ></path>
<path d="M 238 576 L 293 653 L 299 567 Z" stroke="#95d5ee" fill="#95d5ee" style="animation-play-state:running" ></path>
<path d="M 117 478 L 238 576 L 226 478 Z" stroke="#8abdda" fill="#8abdda" style="animation-play-state:running" ></path>
<path d="M 226 478 L 238 576 L 299 567 Z" stroke="#91cbe6" fill="#91cbe6" style="animation-play-state:running" ></path>
<path d="M 102 268 L 204 368 L 236 302 Z" stroke="#7a98b8" fill="#7a98b8" style="animation-play-state:running" ></path>
<path d="M 132 189 L 102 268 L 212 167 Z" stroke="#6d7c9b" fill="#6d7c9b" style="animation-play-state:running" ></path>
<path d="M 36 181 L 102 268 L 132 189 Z" stroke="#697593" fill="#697593" style="animation-play-state:running" ></path>
<path d="M 1219 176 L 1203 68 L 1120 182 Z" stroke="#94d6ee" fill="#94d6ee" style="animation-play-state:running" ></path>
<path d="M 933 674 L 1036 697 L 1011 581 Z" stroke="#ffe691" fill="#ffe691" style="animation-play-state:running" ></path>
<path d="M 1220 -112 L 1101 -113 L 1130 -14 Z" stroke="#6e7f9e" fill="#6e7f9e" style="animation-play-state:running" ></path>
<path d="M 1130 -14 L 1101 -113 L 1029 -100 Z" stroke="#6e7e9d" fill="#6e7e9d" style="animation-play-state:running" ></path>
<path d="M 1029 -100 L 1101 -113 L 919 -133 Z" stroke="#646c89" fill="#646c89" style="animation-play-state:running" ></path>
<path d="M 919 -133 L 1320 -127 L 506 -132 Z" stroke="#5e617c" fill="#5e617c" style="animation-play-state:running" ></path>
<path d="M 1231 502 L 1122 384 L 1099 460 Z" stroke="#daeb98" fill="#daeb98" style="animation-play-state:running" ></path>
<path d="M 1226 262 L 1320 268 L 1219 176 Z" stroke="#89e5d7" fill="#89e5d7" style="animation-play-state:running" ></path>
<path d="M 309 -144 L 209 -127 L 205 -36 Z" stroke="#1c666e" fill="#1c666e" style="animation-play-state:running" ></path>
<path d="M 205 -36 L 140 1 L 232 82 Z" stroke="#4f5b76" fill="#4f5b76" style="animation-play-state:running" ></path>
<path d="M 133 375 L 117 478 L 226 478 Z" stroke="#83adcc" fill="#83adcc" style="animation-play-state:running" ></path>
<path d="M 238 576 L 219 688 L 293 653 Z" stroke="#94d4ed" fill="#94d4ed" style="animation-play-state:running" ></path>
<path d="M 5 472 L 117 478 L 133 375 Z" stroke="#7ea1c0" fill="#7ea1c0" style="animation-play-state:running" ></path>
<path d="M 98 -121 L 140 1 L 205 -36 Z" stroke="#256473" fill="#256473" style="animation-play-state:running" ></path>
<path d="M 33 93 L 36 181 L 132 189 Z" stroke="#606581" fill="#606581" style="animation-play-state:running" ></path>
<path d="M 1224 583 L 1231 502 L 1107 573 Z" stroke="#ffdf93" fill="#ffdf93" style="animation-play-state:running" ></path>
<path d="M 1107 573 L 1231 502 L 1099 460 Z" stroke="#fae791" fill="#fae791" style="animation-play-state:running" ></path>
<path d="M 1203 68 L 1214 -28 L 1130 -14 Z" stroke="#7fa2c2" fill="#7fa2c2" style="animation-play-state:running" ></path>
<path d="M 1313 64 L 1214 -28 L 1203 68 Z" stroke="#85b0ce" fill="#85b0ce" style="animation-play-state:running" ></path>
<path d="M 1313 64 L 1203 68 L 1219 176 Z" stroke="#90cbe6" fill="#90cbe6" style="animation-play-state:running" ></path>
<path d="M 121 574 L 219 688 L 238 576 Z" stroke="#8fc8e3" fill="#8fc8e3" style="animation-play-state:running" ></path>
<path d="M 293 653 L 219 688 L 409 684 Z" stroke="#8edaeb" fill="#8edaeb" style="animation-play-state:running" ></path>
<path d="M 409 684 L 36 706 L 739 698 Z" stroke="#87e0e3" fill="#87e0e3" style="animation-play-state:running" ></path>
<path d="M 1036 697 L 1130 676 L 1107 573 Z" stroke="#ffde93" fill="#ffde93" style="animation-play-state:running" ></path>
<path d="M 5 567 L 121 574 L 117 478 Z" stroke="#83adcc" fill="#83adcc" style="animation-play-state:running" ></path>
<path d="M 117 478 L 121 574 L 238 576 Z" stroke="#89bbd8" fill="#89bbd8" style="animation-play-state:running" ></path>
<path d="M 33 93 L 132 189 L 131 84 Z" stroke="#5e617d" fill="#5e617d" style="animation-play-state:running" ></path>
<path d="M 102 268 L 8 377 L 133 375 Z" stroke="#768fae" fill="#768fae" style="animation-play-state:running" ></path>
<path d="M 1312 387 L 1320 268 L 1240 394 Z" stroke="#b8eca8" fill="#b8eca8" style="animation-play-state:running" ></path>
<path d="M 1240 394 L 1320 268 L 1226 262 Z" stroke="#9febbb" fill="#9febbb" style="animation-play-state:running" ></path>
<path d="M 1130 676 L 1224 583 L 1107 573 Z" stroke="#ffdc94" fill="#ffdc94" style="animation-play-state:running" ></path>
<path d="M 1310 477 L 1312 387 L 1240 394 Z" stroke="#e1ea95" fill="#e1ea95" style="animation-play-state:running" ></path>
<path d="M -7 280 L 8 377 L 102 268 Z" stroke="#7082a1" fill="#7082a1" style="animation-play-state:running" ></path>
<path d="M 1320 268 L 1336 195 L 1219 176 Z" stroke="#87e3dc" fill="#87e3dc" style="animation-play-state:running" ></path>
<path d="M 36 181 L -7 280 L 102 268 Z" stroke="#697694" fill="#697694" style="animation-play-state:running" ></path>
<path d="M 140 1 L 33 93 L 131 84 Z" stroke="#515a75" fill="#515a75" style="animation-play-state:running" ></path>
<path d="M 36 181 L -82 178 L -7 280 Z" stroke="#616784" fill="#616784" style="animation-play-state:running" ></path>
<path d="M 6 -26 L 33 93 L 140 1 Z" stroke="#396078" fill="#396078" style="animation-play-state:running" ></path>
<path d="M 1329 -24 L 1220 -112 L 1214 -28 Z" stroke="#758dad" fill="#758dad" style="animation-play-state:running" ></path>
<path d="M 1214 -28 L 1220 -112 L 1130 -14 Z" stroke="#748cab" fill="#748cab" style="animation-play-state:running" ></path>
<path d="M 1310 477 L 1240 394 L 1231 502 Z" stroke="#f4e892" fill="#f4e892" style="animation-play-state:running" ></path>
<path d="M 1320 268 L 1423 280 L 1336 195 Z" stroke="#8fe8cc" fill="#8fe8cc" style="animation-play-state:running" ></path>
<path d="M 1336 195 L 1313 64 L 1219 176 Z" stroke="#8ed9ec" fill="#8ed9ec" style="animation-play-state:running" ></path>
<path d="M 309 -144 L 98 -121 L 209 -127 Z" stroke="#1a695e" fill="#1a695e" style="animation-play-state:running" ></path>
<path d="M 209 -127 L 98 -121 L 205 -36 Z" stroke="#186768" fill="#186768" style="animation-play-state:running" ></path>
<path d="M 1306 560 L 1310 477 L 1231 502 Z" stroke="#ffdf93" fill="#ffdf93" style="animation-play-state:running" ></path>
<path d="M -95 351 L 5 472 L 8 377 Z" stroke="#7389a8" fill="#7389a8" style="animation-play-state:running" ></path>
<path d="M 8 377 L 5 472 L 133 375 Z" stroke="#7996b6" fill="#7996b6" style="animation-play-state:running" ></path>
<path d="M 1313 64 L 1329 -24 L 1214 -28 Z" stroke="#80a6c5" fill="#80a6c5" style="animation-play-state:running" ></path>
<path d="M 1401 86 L 1329 -24 L 1313 64 Z" stroke="#88b7d5" fill="#88b7d5" style="animation-play-state:running" ></path>
<path d="M 36 706 L 115 689 L 121 574 Z" stroke="#88b8d5" fill="#88b8d5" style="animation-play-state:running" ></path>
<path d="M 121 574 L 115 689 L 219 688 Z" stroke="#8dc2df" fill="#8dc2df" style="animation-play-state:running" ></path>
<path d="M 219 688 L 115 689 L 409 684 Z" stroke="#95d5ee" fill="#95d5ee" style="animation-play-state:running" ></path>
<path d="M 739 698 L 36 706 L 933 674 Z" stroke="#92e9c8" fill="#92e9c8" style="animation-play-state:running" ></path>
<path d="M 933 674 L 36 706 L 1036 697 Z" stroke="#a6ecb5" fill="#a6ecb5" style="animation-play-state:running" ></path>
<path d="M 1322 662 L 1306 560 L 1224 583 Z" stroke="#ffd399" fill="#ffd399" style="animation-play-state:running" ></path>
<path d="M 1224 583 L 1306 560 L 1231 502 Z" stroke="#ffdb94" fill="#ffdb94" style="animation-play-state:running" ></path>
<path d="M 1430 387 L 1423 280 L 1312 387 Z" stroke="#c3eca2" fill="#c3eca2" style="animation-play-state:running" ></path>
<path d="M 98 -121 L 6 -26 L 140 1 Z" stroke="#1b666d" fill="#1b666d" style="animation-play-state:running" ></path>
<path d="M -78 81 L -82 178 L 36 181 Z" stroke="#565973" fill="#565973" style="animation-play-state:running" ></path>
<path d="M -7 280 L -87 290 L 8 377 Z" stroke="#6c7a98" fill="#6c7a98" style="animation-play-state:running" ></path>
<path d="M 1036 697 L 1236 694 L 1130 676 Z" stroke="#ffd896" fill="#ffd896" style="animation-play-state:running" ></path>
<path d="M 1130 676 L 1236 694 L 1224 583 Z" stroke="#ffd598" fill="#ffd598" style="animation-play-state:running" ></path>
<path d="M 36 706 L 1236 694 L 1036 697 Z" stroke="#c0eca3" fill="#c0eca3" style="animation-play-state:running" ></path>
<path d="M 5 472 L 5 567 L 117 478 Z" stroke="#7fa3c2" fill="#7fa3c2" style="animation-play-state:running" ></path>
<path d="M 1329 -24 L 1320 -127 L 1220 -112 Z" stroke="#7082a1" fill="#7082a1" style="animation-play-state:running" ></path>
<path d="M 1220 -112 L 1320 -127 L 1101 -113 Z" stroke="#697492" fill="#697492" style="animation-play-state:running" ></path>
<path d="M 1101 -113 L 1320 -127 L 919 -133 Z" stroke="#656d8b" fill="#656d8b" style="animation-play-state:running" ></path>
<path d="M 506 -132 L 1500 -134 L 309 -144 Z" stroke="#565973" fill="#565973" style="animation-play-state:running" ></path>
<path d="M 1410 468 L 1312 387 L 1310 477 Z" stroke="#fae791" fill="#fae791" style="animation-play-state:running" ></path>
<path d="M 1312 387 L 1423 280 L 1320 268 Z" stroke="#a9ecb3" fill="#a9ecb3" style="animation-play-state:running" ></path>
<path d="M 1336 195 L 1401 86 L 1313 64 Z" stroke="#95d5ee" fill="#95d5ee" style="animation-play-state:running" ></path>
<path d="M 1329 -24 L 1442 -125 L 1320 -127 Z" stroke="#7083a2" fill="#7083a2" style="animation-play-state:running" ></path>
<path d="M -78 81 L 36 181 L 33 93 Z" stroke="#545974" fill="#545974" style="animation-play-state:running" ></path>
<path d="M 5 472 L -88 473 L 5 567 Z" stroke="#7a97b7" fill="#7a97b7" style="animation-play-state:running" ></path>
<path d="M -82 178 L -87 290 L -7 280 Z" stroke="#626986" fill="#626986" style="animation-play-state:running" ></path>
<path d="M 98 -121 L 2 -128 L 6 -26 Z" stroke="#236953" fill="#236953" style="animation-play-state:running" ></path>
<path d="M 6 -26 L -78 81 L 33 93 Z" stroke="#356178" fill="#356178" style="animation-play-state:running" ></path>
<path d="M -94 -46 L -78 81 L 6 -26 Z" stroke="#19676b" fill="#19676b" style="animation-play-state:running" ></path>
<path d="M -156 394 L -95 351 L -185 276 Z" stroke="#656d8a" fill="#656d8a" style="animation-play-state:running" ></path>
<path d="M 1423 280 L 1430 188 L 1336 195 Z" stroke="#89e6d5" fill="#89e6d5" style="animation-play-state:running" ></path>
<path d="M 1430 188 L 1401 86 L 1336 195 Z" stroke="#8adde8" fill="#8adde8" style="animation-play-state:running" ></path>
<path d="M 1236 694 L 1322 662 L 1224 583 Z" stroke="#ffd19b" fill="#ffd19b" style="animation-play-state:running" ></path>
<path d="M 1306 560 L 1410 468 L 1310 477 Z" stroke="#ffde93" fill="#ffde93" style="animation-play-state:running" ></path>
<path d="M 1423 280 L 1524 287 L 1430 188 Z" stroke="#94eac6" fill="#94eac6" style="animation-play-state:running" ></path>
<path d="M 1420 606 L 1410 468 L 1306 560 Z" stroke="#ffd598" fill="#ffd598" style="animation-play-state:running" ></path>
<path d="M -185 276 L -87 290 L -82 178 Z" stroke="#5e617c" fill="#5e617c" style="animation-play-state:running" ></path>
<path d="M -87 290 L -95 351 L 8 377 Z" stroke="#6c7a98" fill="#6c7a98" style="animation-play-state:running" ></path>
<path d="M 1410 468 L 1430 387 L 1312 387 Z" stroke="#ece993" fill="#ece993" style="animation-play-state:running" ></path>
<path d="M -89 661 L 36 706 L 5 567 Z" stroke="#7fa4c4" fill="#7fa4c4" style="animation-play-state:running" ></path>
<path d="M 5 567 L 36 706 L 121 574 Z" stroke="#84afce" fill="#84afce" style="animation-play-state:running" ></path>
<path d="M 115 689 L 36 706 L 409 684 Z" stroke="#90cae5" fill="#90cae5" style="animation-play-state:running" ></path>
<path d="M -95 351 L -88 473 L 5 472 Z" stroke="#7388a8" fill="#7388a8" style="animation-play-state:running" ></path>
<path d="M 1442 -125 L 1429 -33 L 1521 -6 Z" stroke="#7894b4" fill="#7894b4" style="animation-play-state:running" ></path>
<path d="M 1401 86 L 1429 -33 L 1329 -24 Z" stroke="#83accb" fill="#83accb" style="animation-play-state:running" ></path>
<path d="M -68 -127 L -94 -46 L 6 -26 Z" stroke="#27694e" fill="#27694e" style="animation-play-state:running" ></path>
<path d="M -78 81 L -173 178 L -82 178 Z" stroke="#495d78" fill="#495d78" style="animation-play-state:running" ></path>
<path d="M -88 473 L -84 565 L 5 567 Z" stroke="#7995b5" fill="#7995b5" style="animation-play-state:running" ></path>
<path d="M -194 476 L -84 565 L -88 473 Z" stroke="#7287a7" fill="#7287a7" style="animation-play-state:running" ></path>
<path d="M 2 -128 L -68 -127 L 6 -26 Z" stroke="#2f6947" fill="#2f6947" style="animation-play-state:running" ></path>
<path d="M 1521 -6 L 1429 -33 L 1401 86 Z" stroke="#85b0cf" fill="#85b0cf" style="animation-play-state:running" ></path>
<path d="M 1429 -33 L 1442 -125 L 1329 -24 Z" stroke="#7690b0" fill="#7690b0" style="animation-play-state:running" ></path>
<path d="M 1322 662 L 1420 606 L 1306 560 Z" stroke="#ffce9d" fill="#ffce9d" style="animation-play-state:running" ></path>
<path d="M 1512 466 L 1531 373 L 1430 387 Z" stroke="#f3e892" fill="#f3e892" style="animation-play-state:running" ></path>
<path d="M 1430 387 L 1524 287 L 1423 280 Z" stroke="#b4ecaa" fill="#b4ecaa" style="animation-play-state:running" ></path>
<path d="M -188 71 L -78 81 L -94 -46 Z" stroke="#1a676b" fill="#1a676b" style="animation-play-state:running" ></path>
<path d="M -188 71 L -173 178 L -78 81 Z" stroke="#326277" fill="#326277" style="animation-play-state:running" ></path>
<path d="M -95 351 L -156 394 L -88 473 Z" stroke="#6d7c9b" fill="#6d7c9b" style="animation-play-state:running" ></path>
<path d="M -185 276 L -95 351 L -87 290 Z" stroke="#636b88" fill="#636b88" style="animation-play-state:running" ></path>
<path d="M 1531 373 L 1524 287 L 1430 387 Z" stroke="#caec9e" fill="#caec9e" style="animation-play-state:running" ></path>
<path d="M 1430 188 L 1508 67 L 1401 86 Z" stroke="#92d7ed" fill="#92d7ed" style="animation-play-state:running" ></path>
<path d="M 1322 662 L 1403 685 L 1420 606 Z" stroke="#ffc9a2" fill="#ffc9a2" style="animation-play-state:running" ></path>
<path d="M 1236 694 L 1403 685 L 1322 662 Z" stroke="#ffcba0" fill="#ffcba0" style="animation-play-state:running" ></path>
<path d="M -173 178 L -185 276 L -82 178 Z" stroke="#565973" fill="#565973" style="animation-play-state:running" ></path>
<path d="M 1512 466 L 1430 387 L 1410 468 Z" stroke="#ffe491" fill="#ffe491" style="animation-play-state:running" ></path>
<path d="M 1512 466 L 1410 468 L 1420 606 Z" stroke="#ffd796" fill="#ffd796" style="animation-play-state:running" ></path>
<path d="M 1629 176 L 1546 196 L 1631 298 Z" stroke="#8de8ce" fill="#8de8ce" style="animation-play-state:running" ></path>
<path d="M 1524 287 L 1546 196 L 1430 188 Z" stroke="#8ce7d0" fill="#8ce7d0" style="animation-play-state:running" ></path>
<path d="M 1546 196 L 1508 67 L 1430 188 Z" stroke="#89dde7" fill="#89dde7" style="animation-play-state:running" ></path>
<path d="M 1537 595 L 1512 466 L 1420 606 Z" stroke="#ffcf9c" fill="#ffcf9c" style="animation-play-state:running" ></path>
<path d="M -196 557 L -89 661 L -84 565 Z" stroke="#768fae" fill="#768fae" style="animation-play-state:running" ></path>
<path d="M -84 565 L -89 661 L 5 567 Z" stroke="#7b9aba" fill="#7b9aba" style="animation-play-state:running" ></path>
<path d="M -195 -18 L -188 71 L -94 -46 Z" stroke="#1e6958" fill="#1e6958" style="animation-play-state:running" ></path>
<path d="M -173 178 L -265 177 L -185 276 Z" stroke="#4a5c77" fill="#4a5c77" style="animation-play-state:running" ></path>
<path d="M -292 374 L -194 476 L -156 394 Z" stroke="#656e8b" fill="#656e8b" style="animation-play-state:running" ></path>
<path d="M -156 394 L -194 476 L -88 473 Z" stroke="#6d7d9b" fill="#6d7d9b" style="animation-play-state:running" ></path>
<path d="M 1631 84 L 1521 -6 L 1508 67 Z" stroke="#8bc0dd" fill="#8bc0dd" style="animation-play-state:running" ></path>
<path d="M 1508 67 L 1521 -6 L 1401 86 Z" stroke="#8bbedb" fill="#8bbedb" style="animation-play-state:running" ></path>
<path d="M -183 -117 L -195 -18 L -94 -46 Z" stroke="#3c683c" fill="#3c683c" style="animation-play-state:running" ></path>
<path d="M 1521 -6 L 1500 -134 L 1442 -125 Z" stroke="#7287a7" fill="#7287a7" style="animation-play-state:running" ></path>
<path d="M 1442 -125 L 1500 -134 L 1320 -127 Z" stroke="#6a7795" fill="#6a7795" style="animation-play-state:running" ></path>
<path d="M 1320 -127 L 1500 -134 L 506 -132 Z" stroke="#636b88" fill="#636b88" style="animation-play-state:running" ></path>
<path d="M -284 478 L -196 557 L -194 476 Z" stroke="#6a7795" fill="#6a7795" style="animation-play-state:running" ></path>
<path d="M -194 476 L -196 557 L -84 565 Z" stroke="#7184a3" fill="#7184a3" style="animation-play-state:running" ></path>
<path d="M 1512 684 L 1537 595 L 1420 606 Z" stroke="#ffc5a6" fill="#ffc5a6" style="animation-play-state:running" ></path>
<path d="M 1610 382 L 1524 287 L 1531 373 Z" stroke="#cdec9d" fill="#cdec9d" style="animation-play-state:running" ></path>
<path d="M 1631 298 L 1546 196 L 1524 287 Z" stroke="#9aebbf" fill="#9aebbf" style="animation-play-state:running" ></path>
<path d="M 2 -128 L -183 -117 L -68 -127 Z" stroke="#4f662e" fill="#4f662e" style="animation-play-state:running" ></path>
<path d="M -68 -127 L -183 -117 L -94 -46 Z" stroke="#476734" fill="#476734" style="animation-play-state:running" ></path>
<path d="M -303 66 L -265 177 L -188 71 Z" stroke="#19676a" fill="#19676a" style="animation-play-state:running" ></path>
<path d="M 98 -121 L -183 -117 L 2 -128 Z" stroke="#416838" fill="#416838" style="animation-play-state:running" ></path>
<path d="M -280 -127 L -183 -117 L 98 -121 Z" stroke="#576429" fill="#576429" style="animation-play-state:running" ></path>
<path d="M 1625 700 L 1512 684 L 1403 685 Z" stroke="#ffbfad" fill="#ffbfad" style="animation-play-state:running" ></path>
<path d="M 1403 685 L 1512 684 L 1420 606 Z" stroke="#ffc4a6" fill="#ffc4a6" style="animation-play-state:running" ></path>
<path d="M -303 66 L -188 71 L -195 -18 Z" stroke="#1d6959" fill="#1d6959" style="animation-play-state:running" ></path>
<path d="M -188 71 L -265 177 L -173 178 Z" stroke="#306276" fill="#306276" style="animation-play-state:running" ></path>
<path d="M -185 276 L -292 374 L -156 394 Z" stroke="#606581" fill="#606581" style="animation-play-state:running" ></path>
<path d="M 1546 196 L 1629 176 L 1508 67 Z" stroke="#89dde7" fill="#89dde7" style="animation-play-state:running" ></path>
<path d="M 1521 -6 L 1605 -114 L 1500 -134 Z" stroke="#738aa9" fill="#738aa9" style="animation-play-state:running" ></path>
<path d="M 1631 298 L 1524 287 L 1610 382 Z" stroke="#beeca5" fill="#beeca5" style="animation-play-state:running" ></path>
<path d="M 1531 373 L 1512 466 L 1610 382 Z" stroke="#f7e791" fill="#f7e791" style="animation-play-state:running" ></path>
<path d="M 1610 382 L 1512 466 L 1627 478 Z" stroke="#ffe192" fill="#ffe192" style="animation-play-state:running" ></path>
<path d="M 1627 478 L 1512 466 L 1611 575 Z" stroke="#ffd598" fill="#ffd598" style="animation-play-state:running" ></path>
<path d="M -292 279 L -292 374 L -185 276 Z" stroke="#585973" fill="#585973" style="animation-play-state:running" ></path>
<path d="M -265 177 L -292 279 L -185 276 Z" stroke="#4b5c77" fill="#4b5c77" style="animation-play-state:running" ></path>
<path d="M -196 557 L -206 676 L -89 661 Z" stroke="#748aaa" fill="#748aaa" style="animation-play-state:running" ></path>
<path d="M -89 661 L -206 676 L 36 706 Z" stroke="#7b99b9" fill="#7b99b9" style="animation-play-state:running" ></path>
<path d="M -272 579 L -206 676 L -196 557 Z" stroke="#6e7e9d" fill="#6e7e9d" style="animation-play-state:running" ></path>
<path d="M 1631 298 L 1631 84 L 1629 176 Z" stroke="#87e4dc" fill="#87e4dc" style="animation-play-state:running" ></path>
<path d="M 1629 176 L 1631 84 L 1508 67 Z" stroke="#92d7ed" fill="#92d7ed" style="animation-play-state:running" ></path>
<path d="M -272 579 L -284 478 L -292 374 Z" stroke="#636b88" fill="#636b88" style="animation-play-state:running" ></path>
<path d="M -292 374 L -284 478 L -194 476 Z" stroke="#646b88" fill="#646b88" style="animation-play-state:running" ></path>
<path d="M -284 -24 L -303 66 L -195 -18 Z" stroke="#336944" fill="#336944" style="animation-play-state:running" ></path>
<path d="M -265 177 L -303 66 L -292 279 Z" stroke="#286474" fill="#286474" style="animation-play-state:running" ></path>
<path d="M 1631 84 L 1626 -31 L 1521 -6 Z" stroke="#86b3d1" fill="#86b3d1" style="animation-play-state:running" ></path>
<path d="M 1610 382 L 1627 478 L 1631 298 Z" stroke="#ebe993" fill="#ebe993" style="animation-play-state:running" ></path>
<path d="M 1611 575 L 1512 466 L 1537 595 Z" stroke="#ffce9d" fill="#ffce9d" style="animation-play-state:running" ></path>
<path d="M 1625 700 L 1611 575 L 1537 595 Z" stroke="#ffc2a9" fill="#ffc2a9" style="animation-play-state:running" ></path>
<path d="M -183 -117 L -284 -24 L -195 -18 Z" stroke="#486733" fill="#486733" style="animation-play-state:running" ></path>
<path d="M -303 66 L -284 -24 L -292 279 Z" stroke="#176864" fill="#176864" style="animation-play-state:running" ></path>
<path d="M -292 279 L -272 579 L -292 374 Z" stroke="#5f637f" fill="#5f637f" style="animation-play-state:running" ></path>
<path d="M -284 478 L -272 579 L -196 557 Z" stroke="#697694" fill="#697694" style="animation-play-state:running" ></path>
<path d="M 1631 84 L 1605 -114 L 1626 -31 Z" stroke="#80a4c4" fill="#80a4c4" style="animation-play-state:running" ></path>
<path d="M 1626 -31 L 1605 -114 L 1521 -6 Z" stroke="#7a98b8" fill="#7a98b8" style="animation-play-state:running" ></path>
<path d="M -183 -117 L -280 -127 L -284 -24 Z" stroke="#646123" fill="#646123" style="animation-play-state:running" ></path>
<path d="M 309 -144 L -280 -127 L 98 -121 Z" stroke="#376941" fill="#376941" style="animation-play-state:running" ></path>
<path d="M 1500 -134 L -280 -127 L 309 -144 Z" stroke="#366178" fill="#366178" style="animation-play-state:running" ></path>
<path d="M -272 579 L -285 679 L -206 676 Z" stroke="#6c7b9a" fill="#6c7b9a" style="animation-play-state:running" ></path>
<path d="M -206 676 L -285 679 L 36 706 Z" stroke="#758eae" fill="#758eae" style="animation-play-state:running" ></path>
<path d="M -292 279 L -285 679 L -272 579 Z" stroke="#656e8c" fill="#656e8c" style="animation-play-state:running" ></path>
<path d="M -284 -24 L -285 679 L -292 279 Z" stroke="#545974" fill="#545974" style="animation-play-state:running" ></path>
<path d="M -280 -127 L -285 679 L -284 -24 Z" stroke="#2a6375" fill="#2a6375" style="animation-play-state:running" ></path>
<path d="M 1236 694 L 1625 700 L 1403 685 Z" stroke="#ffc4a7" fill="#ffc4a7" style="animation-play-state:running" ></path>
<path d="M 1512 684 L 1625 700 L 1537 595 Z" stroke="#ffbfad" fill="#ffbfad" style="animation-play-state:running" ></path>
<path d="M 1611 575 L 1625 700 L 1627 478 Z" stroke="#ffc7a4" fill="#ffc7a4" style="animation-play-state:running" ></path>
<path d="M 1627 478 L 1625 700 L 1631 298 Z" stroke="#ffd797" fill="#ffd797" style="animation-play-state:running" ></path></g>
<style type="text/css" style="animation-play-state:running" >#bk-0.6722686744726716 path { stroke-width: 1 }</style></g></svg>